<?xml version="1.0" encoding="utf-8"?>
<!-- Generator: Adobe Illustrator 17.0.0, SVG Export Plug-In . SVG Version: 6.00 Build 0)  -->
<!DOCTYPE svg PUBLIC "-//W3C//DTD SVG 1.1//EN" "http://www.w3.org/Graphics/SVG/1.1/DTD/svg11.dtd">
<svg version="1.1" id="Layer_1" xmlns="http://www.w3.org/2000/svg" xmlns:xlink="http://www.w3.org/1999/xlink" x="0px" y="0px"
	 width="2185.424px" height="775.048px" viewBox="0 0 2185.424 775.048" enable-background="new 0 0 2185.424 775.048"
	 xml:space="preserve">
<path fill="#FFFFFF" stroke="#FFFFFF" stroke-miterlimit="10" d="M1228.218,214.471c12.653,0,25.331,0.481,37.953-0.142
	c11.531-0.569,20.931,2.357,27.956,11.942c6.081,8.296,12.47,16.367,18.757,24.511c6.298,8.158,12.611,16.306,18.968,24.418
	c13.953,17.806,28.042,35.506,41.867,53.41c7.321,9.481,14.262,19.259,21.272,28.977c7.783,10.789,15.26,21.805,23.248,32.438
	c3.783,5.035,8.823,9.124,12.622,14.15c5.806,7.68,11.216,15.681,16.444,23.771c4.24,6.562,9.062,12.412,16.215,15.821
	c8.514,4.059,14.587,1.391,16.545-7.683c0.961-4.455,1.115-9.306,0.527-13.834c-2.066-15.907-2.637-31.692-1.388-47.792
	c1.31-16.889,0.284-33.959,0.3-50.95c0.013-13.993-0.056-27.988,0.127-41.98c0.12-9.157-1.499-17.781-5.425-26.147
	c-3.954-8.427-7.276-17.158-10.711-25.82c-3.628-9.147-0.625-13.856,9.446-14.702c4.304-0.362,8.655-0.192,12.985-0.21
	c15.981-0.068,31.983,0.373,47.939-0.293c19.637-0.819,20.787,8.519,13.844,21.657c-9.248,17.503-13.618,36.866-13.553,56.817
	c0.09,27.295,0.737,54.589,1.146,81.883c0.03,1.999,0.097,3.997,0.098,5.996c0.027,58.617,0.041,117.235,0.073,175.852
	c0.008,14.95,0.081,29.9,0.092,44.85c0.001,1.995-0.01,4.017-0.317,5.979c-1.368,8.737-6.57,12.624-15.446,11.652
	c-0.99-0.108-2.006-0.222-2.943-0.533c-12.318-4.08-24.674-8.06-36.904-12.392c-3.393-1.202-6.39-3.506-9.598-5.25
	c-5.82-3.164-11.453-6.798-17.549-9.296c-7.232-2.963-13.32-7.168-19.174-12.3c-20.748-18.187-37.435-39.615-52.105-62.823
	c-3.538-5.597-8.307-10.404-12.312-15.722c-12.217-16.223-24.266-32.573-36.515-48.772c-11.844-15.662-23.955-31.122-35.741-46.828
	c-4.383-5.841-8.018-12.24-12.298-18.164c-2.699-3.735-5.474-7.703-9.072-10.441c-7.942-6.044-15.999-2.496-17.625,7.254
	c-0.164,0.981-0.238,1.992-0.221,2.987c0.336,19.644,0.707,39.287,1.037,58.93c0.206,12.321,0.579,24.645,0.474,36.964
	c-0.135,15.963-1.091,31.928-0.896,47.883c0.146,11.953,0.635,24.053,2.718,35.777c1.416,7.968,5.789,15.426,8.984,23.052
	c0.761,1.817,2.23,3.324,3.148,5.09c4.859,9.354,1.399,15.783-8.947,16.632c-1.985,0.163-3.995,0.007-5.993,0.016
	c-19.643,0.087-39.287,0.178-58.93,0.269c-0.333,0.002-0.666,0.029-0.999,0.03c-5.674,0.024-11.876,0.736-15.344-4.958
	c-3.666-6.019-0.438-11.567,2.732-16.764c1.382-2.266,3.04-4.382,4.731-6.436c6.639-8.062,9.679-17.368,9.709-27.721
	c0.069-24.314,0.128-48.629,0.157-72.943c0.044-36.309,0.129-72.619,0.065-108.928c-0.054-30.982-0.293-61.965-0.447-92.947
	c-0.058-11.664-2.967-22.295-10.384-31.641c-4.944-6.229-9.142-13.045-13.903-19.427c-2.478-3.321-5.551-6.979-2.708-10.655
	c1.872-2.421,6.075-4.1,9.303-4.217c10.306-0.374,20.645,0.162,30.971,0.294c4.996,0.064,9.994,0.011,14.992,0.011
	C1228.218,214.873,1228.218,214.672,1228.218,214.471z"/>
<path fill="#FFFFFF" d="M68.414,215.003c15.999,0,31.998-0.004,47.997,0.004c2.666,0.001,5.339-0.058,7.997,0.108
	c10.61,0.659,13.117,4.814,8.597,14.263c-2.155,4.504-4.625,8.861-6.667,13.413c-5.696,12.701-7.827,25.922-6.891,39.919
	c1.133,16.94,1.571,33.943,1.723,50.924c0.068,7.616-1.268,15.246-2.01,22.866c-0.291,2.981-0.975,5.947-1.011,8.925
	c-0.163,13.618,8.468,19.182,20.229,12.482c4.426-2.522,8.115-6.805,11.304-10.931c6.302-8.154,11.842-16.893,18.021-25.148
	c10.966-14.649,22.097-29.177,33.306-43.641c7.327-9.454,15.047-18.603,22.351-28.074c9.426-12.221,10.083-24.881,1.443-37.937
	c-2.515-3.8-6.083-7.818-3.473-12.779c2.788-5.299,8.309-4.823,13.295-4.837c27.989-0.078,55.979-0.078,83.968-0.156
	c3.659-0.01,7.333-0.613,10.972-0.418c4.798,0.257,9.546,1.473,11.418,6.568c1.739,4.733-0.996,8.508-4.23,11.507
	c-23.563,21.849-40.658,49.331-62.865,72.284c-17.675,18.269-30.971,39.988-48.169,58.546c-6.795,7.332-7.866,15.156-2.888,23.742
	c3.671,6.332,7.499,12.575,11.338,18.808c3.83,6.218,7.708,12.407,11.67,18.541c1.795,2.779,3.462,5.809,5.847,8.009
	c7.061,6.514,11.393,14.579,15.077,23.282c2.047,4.835,5.248,9.196,8.074,13.68c1.773,2.813,3.902,5.4,5.716,8.189
	c5.428,8.348,10.643,16.837,16.195,25.1c7.231,10.761,15.697,20.748,19.895,33.343c0.717,2.15,2.301,4.039,3.621,5.955
	c6.973,10.12,13.903,20.272,21.023,30.289c4.427,6.23,9.184,12.225,13.752,18.355c1.98,2.657,4.341,5.172,5.677,8.135
	c2.256,5.006,0.284,9.276-4.863,11.254c-2.129,0.818-4.559,1.339-6.822,1.247c-26.6-1.077-53.302,1.044-79.808-3.486
	c-14.748-2.52-27.611-9.598-41.231-14.862c-2.075-0.802-4.057-2.479-5.48-4.238c-15.485-19.139-31.176-38.083-41.766-60.68
	c-5.497-11.729-12.502-22.742-18.589-34.205c-4.362-8.213-8.577-16.523-12.4-24.996c-3.227-7.152-7.249-13.522-13.865-17.915
	c-8.708-5.782-15.907-2.837-17.366,7.399c-0.6,4.211-0.271,8.664,0.311,12.914c2.313,16.896,2.912,33.73,1.657,50.82
	c-1.286,17.521-2.907,35.367,4.107,52.345c2.791,6.755,5.434,13.607,8.766,20.095c6.113,11.904,3.698,16.3-9.952,16.695
	c-9.991,0.289-19.995,0.597-29.984,0.4c-16.98-0.336-33.95-1.181-50.93-1.566c-6.303-0.143-12.622,0.399-18.933,0.643
	c-4.649,0.18-9.362,0.963-13.932,0.449c-8.402-0.945-11.516-6.424-8.529-14.219c0.943-2.462,2.251-4.881,3.84-6.981
	c7.797-10.308,10.417-22.157,10.732-34.744c0.025-0.999,0.024-2,0.025-3c0.049-63.973,0.08-127.946,0.153-191.919
	c0.034-29.967,0.065-59.934,0.266-89.9c0.088-13.041-2.175-25.213-11.057-35.391c-0.435-0.499-0.795-1.073-1.132-1.646
	c-2.376-4.042-5.191-8.165-2.699-13.025c2.518-4.91,7.459-5.098,12.19-5.111c18.329-0.05,36.658-0.02,54.987-0.02
	C68.414,214.784,68.414,214.894,68.414,215.003z"/>
<path fill="#FFFFFF" d="M2181.446,595.067c-1.372-1.452-2.888-2.767-4.278-4.202c-15.617-16.121-24.619-36.037-31.209-56.961
	c-2.802-8.897-4.183-18.094-10.109-25.756c-1.793-2.319-3.502-5.198-3.904-8.013c-2.011-14.104-7.991-26.682-14.131-39.26
	c-1.152-2.36-1.478-5.111-2.333-7.631c-8.017-23.626-16.06-47.243-24.124-70.853c-0.428-1.254-1.168-2.399-1.659-3.636
	c-7.605-19.134-15.499-38.16-22.701-57.444c-7.337-19.647-13.879-39.59-20.986-59.325c-3.837-10.654-8.084-21.162-12.228-31.703
	c-4.9-12.463-9.872-15.746-23.512-15.714c-1.333,0.003-2.666,0.104-3.998,0.083c-29.948-0.485-59.918,3.074-89.861-0.59
	c-3.546-0.434-7.375,0.126-10.884,0.993c-6.625,1.638-8.614,5.651-6.397,12.012c0.653,1.873,1.583,3.688,2.627,5.38
	c3.643,5.903,4.583,12.308,4.455,19.154c-0.282,14.995-5.177,28.679-10.68,42.373c-3.957,9.849-6.685,20.187-10.068,30.272
	c-2.749,8.194-5.638,16.341-8.496,24.498c-3.182,9.082-6.357,18.167-9.613,27.223c-2.583,7.184-5.305,14.319-7.927,21.489
	c-3.183,8.705-7.095,17.237-9.292,26.187c-2.782,11.336-5.081,22.657-10.226,33.325c-3.732,7.738-6.1,16.133-9.09,24.23
	c-2.528,6.846-5.049,13.695-7.624,20.524c-1.408,3.734-3.55,7.309-4.278,11.161c-2.934,15.511-7.39,30.393-15.919,43.854
	c-0.874,1.38-1.43,3.042-1.796,4.65c-2.665,11.719-8.532,21.47-17.103,29.904c-4.025,3.96-7.791,9.084-4.703,15.154
	c2.92,5.737,8.989,4.798,14.27,4.795c14.628-0.006,29.256-0.053,43.883-0.197c9.994-0.098,19.99-0.29,29.977-0.635
	c4.14-0.143,8.742-1.261,9.483-5.734c0.515-3.108-1.516-6.712-2.702-9.99c-0.421-1.163-1.639-2.081-2.601-2.998
	c-4.665-4.448-6.159-9.98-6.267-16.278c-0.183-10.617,3.263-20.225,6.98-29.941c3.913-10.227,7.545-20.629,10.302-31.215
	c3.913-15.026,8.514-20.417,23.914-22.698c10.844-1.606,21.878-2.408,32.844-2.602c18.268-0.324,36.55,0.257,54.826,0.213
	c15.973-0.038,22.026,3.795,27.755,19.03c5.277,14.033,9.872,28.329,15.377,42.268c5.883,14.898,6.196,28.776-2.867,42.86
	c-6.525,10.139-2.628,16.851,9.399,17.076c21.317,0.399,42.648,0.112,63.973,0.112c0,0.124,0.001,0.249,0.001,0.373
	c10.654,0,21.308-0.067,31.961,0.018c11.66,0.092,23.319,0.454,34.977,0.426c4.104-0.01,8.103-1.258,9.892-5.517
	C2186.597,601.465,2184.305,598.094,2181.446,595.067z M1981.957,434.231c-6.056,1.424-12.525,1.089-18.808,1.548
	c-0.061-0.556-0.122-1.111-0.183-1.667c-8.868,1.144-17.791,1.975-26.586,3.529c-7.28,1.286-13.99,1.503-19.245-4.687
	c-5.537-6.521-6.736-14.291-2.864-21.487c10.852-20.165,16.898-41.835,22.348-63.852c1.294-5.228,4.507-10.516,8.212-14.498
	c7.036-7.563,15.684-5.588,19.961,3.739c0.277,0.604,0.647,1.224,0.708,1.861l25.281,74.223
	C1996.272,423.279,1993.338,431.556,1981.957,434.231z"/>
<path fill="#FFFFFF" d="M667.166,373.598c0-41.31,0.159-82.622-0.183-123.93c-0.047-5.739-2.39-11.507-4.026-17.159
	c-0.629-2.174-2.421-3.982-3.391-6.091c-3.187-6.929-1.057-11.113,6.552-11.69c7.292-0.552,14.653-0.116,21.98-0.286
	c12.641-0.294,25.276-0.79,37.917-1.058c4.646-0.098,9.403-0.357,13.928,0.458c8.365,1.507,11.045,6.559,8.329,14.586
	c-0.851,2.515-2.422,4.806-3.116,7.349c-1.211,4.441-2.85,9.001-2.83,13.504c0.173,38.299,0.932,76.595,0.986,114.893
	c0.03,20.974-1.189,41.947-1.404,62.925c-0.122,11.978,0.372,23.98,1.062,35.943c1.55,26.88,0.501,53.405-11.098,78.311
	c-3.323,7.136-7.957,13.714-12.44,20.238c-2.998,4.363-6.797,8.175-10.225,12.244c-0.644,0.764-1.119,1.704-1.861,2.345
	c-15.862,13.687-31.872,27.151-51.915,34.573c-17.216,6.375-34.822,10.572-53.083,13.352c-22.819,3.475-45.164,0.522-67.686-0.975
	c-3.884-0.258-7.666-2.119-11.486-3.27c-8.273-2.493-16.486-5.208-24.826-7.449c-7.172-1.926-13.904-4.38-19.543-9.509
	c-2.674-2.432-5.833-4.499-9.084-6.097c-11.632-5.721-21.324-14.209-28.999-24.116c-7.422-9.581-12.087-21.222-20.909-30.057
	c-1.888-1.891-2.548-5.477-2.87-8.382c-1.352-12.229-3.315-24.494-3.34-36.75c-0.151-74.972,0.194-149.945,0.275-224.918
	c0.007-6.651-0.806-13.299-1.035-19.955c-0.272-7.881-2.244-15.062-7.307-21.324c-1.422-1.759-2.445-4.029-3.043-6.229
	c-1.439-5.293,0.682-9.378,6.035-10.788c3.471-0.914,7.251-1.002,10.878-0.911c10.991,0.277,21.974,1.165,32.961,1.165
	c10.632,0,21.264-0.816,31.896-1.252c4.324-0.178,8.683-0.706,12.969-0.364c9.253,0.737,13.239,6.984,7.981,14.252
	c-7.451,10.3-7.948,21.429-7.914,33.24c0.222,76.641,0.241,153.283,0.351,229.924c0.007,4.664,0.272,9.326,0.335,13.991
	c0.142,10.402,3.687,18.893,10.857,26.962c7.849,8.834,16.007,17.039,26.143,22.834c7.41,4.236,15.422,8.862,23.623,9.994
	c21.883,3.019,43.854,2.832,65.044-5.33c9.614-3.703,17.708-9.133,23.515-17.759c1.301-1.933,2.584-3.938,4.205-5.585
	c14.39-14.621,15.728-32.894,15.432-52.004c-0.469-30.289-0.209-60.589-0.253-90.884c-0.009-6.32-0.001-12.639-0.001-18.959
	C666.757,373.599,666.961,373.598,667.166,373.598z"/>
<path fill="#FFFFFF" d="M1292.313,770.138c-6.615,6.039-12.285,5.307-17.165,4.032c-14.795-3.866-29.428-8.381-44.015-12.99
	c-3.069-0.97-5.723-3.341-8.472-5.207c-1.924-1.306-3.472-3.537-5.553-4.183c-17.687-5.5-29.244-20.641-45.352-28.596
	c-2.955-1.459-6.002-3.266-8.188-5.659c-19.966-21.863-43.725-39.778-63.758-61.571c-14.422-15.689-29.269-30.986-43.745-46.625
	c-5.191-5.608-9.8-11.751-14.768-17.57c-15.339-17.963-30.299-36.274-46.233-53.694c-11.193-12.238-23.689-23.291-35.701-34.771
	c-4.322-4.131-9.49-7.495-13.279-12.037c-5.709-6.844-12.438-11.909-20.451-15.589c-3.002-1.379-6.013-3.051-8.495-5.196
	c-15.98-13.81-34.934-21.759-54.677-28.235c-5.062-1.66-10.33-2.946-15.072-5.282c-13.397-6.601-27.499-7.311-41.975-6.175
	c-4.97,0.39-10.021,0.906-14.948,0.437c-9.477-0.901-13.577-8.832-9.374-17.416c0.721-1.472,1.653-2.993,2.873-4.046
	c19.274-16.631,35.588-36.752,59.563-47.82c11.403-5.264,21.527-13.258,32.388-19.752c7.127-4.262,14.396-8.335,21.842-12.004
	c22.813-11.242,44.547-24.196,62.999-41.826c14.909-14.245,25.545-31.653,32.425-51.037c4.603-12.969,1.675-25.785-4.413-37.697
	c-8.172-15.988-19.505-28.386-35.486-38.023c-14.135-8.524-28.726-14.327-43.833-20.392c-19.656-7.892-39.511-10.818-60.142-12.808
	c-17.835-1.72-35.698-4.379-52.139-12.747c-4.626-2.354-10.297-2.564-15.343-4.205c-8.18-2.66-16.291-5.555-24.329-8.618
	c-4.345-1.656-8.316-4.411-12.736-5.732c-19.349-5.785-36.583-15.924-54.13-25.493c-14.894-8.122-30.38-15.228-44.879-23.984
	c-13.627-8.23-27.037-17.029-38.378-28.517c-3.727-3.775-8.312-6.716-11.94-10.569c-1.526-1.62-1.588-4.618-2.316-6.99
	c2.396-0.567,4.832-1.7,7.177-1.535c2.188,0.154,4.446,1.424,6.39,2.651c33.691,21.261,70.105,36.504,107.274,50.545
	c17.315,6.541,34.456,12.007,52.807,14.031c6.254,0.689,12.71,1.762,18.492,4.097c19.513,7.88,40.163,9.405,60.667,11.449
	c19.599,1.954,39.057,4.007,57.952,10.093c12.161,3.917,24.783,4.81,37.577,3.3c4.253-0.502,8.662-0.283,12.944,0.154
	c25.167,2.572,49.021,10.13,71.145,21.968c15.419,8.251,27.065,21.532,36.601,36.181c4.519,6.942,7.839,14.691,11.435,22.202
	c8.63,18.024,7.935,61.334-1.103,79.021c-1.364,2.669-3.03,5.265-3.892,8.097c-5.453,17.913-18.177,30.905-30.406,43.962
	c-20.985,22.407-47.469,34.919-77.41,40.818c-8.109,1.598-15.944,4.602-23.888,7.018c-4.453,1.354-8.784,3.294-13.325,4.143
	c-8.336,1.557-15.589,5.224-23.076,9.041c-7.881,4.017-16.743,6.259-25.349,8.661c-7.728,2.157-14.171,5.613-18.247,12.797
	c-6.135,10.812-2.791,17.4,9.423,18.331c1.654,0.126,3.372,0.24,4.986-0.052c15.188-2.756,29.829-0.711,44.204,4.567
	c3.089,1.134,6.464,1.644,9.756,2.036c11.01,1.311,21.72,3.281,31.008,10.048c2.361,1.72,5.341,2.99,8.214,3.543
	c20.02,3.855,35.244,16.942,52.013,26.947c21.423,12.782,35.707,32.526,49.5,52.632c13.382,19.508,22.954,41.174,34.859,61.436
	c8.897,15.143,14.268,32.185,25.785,45.983c5.647,6.765,8.648,15.687,13.224,23.409c8.102,13.672,16.44,27.206,24.809,40.718
	c1.558,2.515,3.558,4.816,5.639,6.936c7.232,7.369,14.709,14.5,21.865,21.941c6.721,6.989,14.604,12.39,22.212,18.28
	c11.727,9.079,24.049,16.414,37.592,22.104c2.705,1.136,5.177,3.089,7.395,5.07c5.874,5.248,12.766,8.265,20.229,10.461
	C1283.475,765.776,1287.081,767.833,1292.313,770.138z"/>
<path fill="#FFFFFF" d="M1670.808,214.75c16.324,0,32.648-0.007,48.972,0.007c2.664,0.002,5.347-0.086,7.99,0.181
	c8.698,0.879,11.791,5.364,7.466,12.724c-6.078,10.344-8.214,21.715-10.926,33.023c-2.197,9.16-2.671,18.32-1.539,27.753
	c1.028,8.568,1.13,17.282,1.139,25.932c0.059,53.97-0.057,107.94-0.009,161.91c0.005,5.976,0.908,11.949,1.001,17.929
	c0.139,8.969,0.419,17.978-0.234,26.907c-1.338,18.314-3.023,36.596,2.597,54.524c1.877,5.988,3.768,12.064,6.536,17.663
	c5.906,11.942,3.446,16.81-9.792,16.981c-21.957,0.284-43.918,0.185-65.877,0.297c-12.656,0.065-25.311,0.238-37.967,0.336
	c-2.662,0.02-5.365,0.202-7.98-0.175c-8.786-1.267-11.714-7.012-7.893-15.135c0.142-0.301,0.256-0.635,0.467-0.881
	c12.113-14.137,11.451-31.079,11.46-48.27c0.029-52.957,0.752-105.914,1.144-158.872c0.263-35.62,0.657-71.242,0.478-106.86
	c-0.052-10.255-1.18-20.643-3.181-30.698c-1.181-5.933-4.975-11.366-7.729-16.957c-1.166-2.366-3.099-4.415-3.948-6.863
	c-1.822-5.252,0.462-9.223,5.918-10.563c2.227-0.547,4.625-0.536,6.946-0.541c18.32-0.04,36.64-0.022,54.96-0.022
	C1670.808,214.97,1670.808,214.86,1670.808,214.75z"/>
</svg>
